<?xml version="1.0" encoding="utf-8"?>
<!-- Generator: Adobe Illustrator 25.0.0, SVG Export Plug-In . SVG Version: 6.00 Build 0)  -->
<svg version="1.1" id="Слой_1" xmlns="http://www.w3.org/2000/svg" xmlns:xlink="http://www.w3.org/1999/xlink" x="0px" y="0px"
	 viewBox="0 0 3300 2200" style="enable-background:new 0 0 3300 2200;" xml:space="preserve">
<style type="text/css">
	.st0{fill:#FFFFFF;}
	.st1{fill:none;stroke:#000000;stroke-width:0.5;}
	.st2{font-family:'Arial-BoldMT';}
	.st3{font-size:12px;}
	.st4{font-family:'ArialMT';}
	.st5{fill:none;stroke:#00AEEF;stroke-width:0.5;}
	.st6{fill:#27AAE1;}
	.st7{fill:none;stroke:#27AAE1;stroke-width:0.5;}
	.st8{fill-rule:evenodd;clip-rule:evenodd;}
</style>
<g id="Notes">
	<rect id="artboard" class="st0" width="3300" height="2200"/>
	<line class="st1" x1="263" y1="292" x2="3036" y2="292"/>
	<text transform="matrix(1 0 0 1 263 322)" class="st2 st3">Weight/Scale Variations</text>
	<text transform="matrix(1 0 0 1 536.0362 322)" class="st4 st3">Ultralight</text>
	<text transform="matrix(1 0 0 1 844.7501 322)" class="st4 st3">Thin</text>
	<text transform="matrix(1 0 0 1 1140.1193 322)" class="st4 st3">Light</text>
	<text transform="matrix(1 0 0 1 1428.8282 322)" class="st4 st3">Regular</text>
	<text transform="matrix(1 0 0 1 1725.2202 322)" class="st4 st3">Medium</text>
	<text transform="matrix(1 0 0 1 2018.2563 322)" class="st4 st3">Semibold</text>
	<text transform="matrix(1 0 0 1 2327.9712 322)" class="st4 st3">Bold</text>
	<text transform="matrix(1 0 0 1 2619.6831 322)" class="st4 st3">Heavy</text>
	<text transform="matrix(1 0 0 1 2918.728 322)" class="st4 st3">Black</text>
	<line class="st1" x1="263" y1="1903" x2="3036" y2="1903"/>
	<g transform="matrix(1 0 0 1 263 1933)">
		<path d="M9.2,0.8c4.3,0,7.9-3.6,7.9-7.9c0-4.3-3.6-7.9-7.9-7.9c-4.3,0-7.9,3.6-7.9,7.9C1.4-2.7,5,0.8,9.2,0.8z M9.2-0.7
			c-3.5,0-6.4-2.8-6.4-6.4c0-3.6,2.8-6.4,6.4-6.4c3.6,0,6.4,2.8,6.4,6.4C15.7-3.5,12.8-0.7,9.2-0.7z M9.2-3.6c0.5,0,0.7-0.3,0.7-0.8
			v-1.9h2c0.5,0,0.8-0.3,0.8-0.7c0-0.5-0.3-0.7-0.8-0.7h-2v-2c0-0.5-0.3-0.8-0.7-0.8s-0.7,0.3-0.7,0.8v2h-2C6-7.8,5.6-7.5,5.6-7
			c0,0.5,0.4,0.7,0.8,0.7h2v1.9C8.5-4,8.8-3.6,9.2-3.6z"/>
	</g>
	<g transform="matrix(1 0 0 1 281.506 1933)">
		<path d="M11.7,2.9c5.4,0,10-4.5,10-10c0-5.4-4.5-10-10-10c-5.4,0-10,4.5-10,10C1.7-1.6,6.3,2.9,11.7,2.9z M11.7,1.2
			c-4.6,0-8.3-3.7-8.3-8.3c0-4.6,3.7-8.3,8.3-8.3c4.6,0,8.3,3.7,8.3,8.3C20-2.4,16.3,1.2,11.7,1.2z M11.7-2.7c0.5,0,0.8-0.4,0.8-0.9
			v-2.6h2.8c0.5,0,0.9-0.3,0.9-0.8c0-0.5-0.4-0.8-0.9-0.8h-2.8v-2.8c0-0.6-0.3-0.9-0.8-0.9c-0.5,0-0.8,0.4-0.8,0.9v2.8H8.1
			C7.5-7.9,7.1-7.6,7.1-7c0,0.5,0.4,0.8,0.9,0.8h2.8v2.6C10.9-3,11.2-2.7,11.7-2.7z"/>
	</g>
	<g transform="matrix(1 0 0 1 304.924 1933)">
		<path d="M15,5.7c7,0,12.7-5.8,12.7-12.7c0-7-5.8-12.7-12.7-12.7C8-19.8,2.3-14,2.3-7.1C2.3-0.1,8,5.7,15,5.7z M15,3.8
			C8.9,3.8,4.1-1,4.1-7.1c0-6,4.8-10.9,10.9-10.9c6,0,10.9,4.9,10.9,10.9C25.9-1,21,3.8,15,3.8z M14.9-1.4c0.6,0,0.9-0.4,0.9-1v-3.8
			h3.9c0.6,0,1-0.3,1-0.9c0-0.6-0.4-0.9-1-0.9h-3.9v-3.9c0-0.6-0.3-1-0.9-1c-0.6,0-0.9,0.4-0.9,1v3.9h-3.9c-0.6,0-1,0.3-1,0.9
			c0,0.6,0.4,0.9,1,0.9h3.9v3.8C14.1-1.8,14.4-1.4,14.9-1.4z"/>
	</g>
	<text transform="matrix(1 0 0 1 263 1953)" class="st2 st3">Design Variations</text>
	<text transform="matrix(1 0 0 1 263 1971)" class="st4 st3">Symbols are supported in up to nine weights and three scales.</text>
	<text transform="matrix(1 0 0 1 263 1989)" class="st4 st3">For optimal layout with text and other symbols, vertically align</text>
	<text transform="matrix(1 0 0 1 263 2007)" class="st4 st3">symbols with the adjacent text.</text>
	<line class="st5" x1="776" y1="1919" x2="776" y2="1933"/>
	<g transform="matrix(1 0 0 1 776 1933)">
		<path d="M3.3,0.1c0.5,0,0.8-0.2,1-0.7l1.3-3.5h5.8l1.3,3.5c0.2,0.5,0.4,0.7,0.9,0.7c0.5,0,0.8-0.3,0.8-0.8c0-0.2,0-0.3-0.1-0.5
			L9.7-13.4C9.4-14,9-14.3,8.4-14.3c-0.6,0-1,0.3-1.2,0.9L2.6-1.2C2.5-1,2.5-0.8,2.5-0.7C2.5-0.2,2.8,0.1,3.3,0.1z M6-5.5l2.4-6.6h0
			l2.4,6.6H6z"/>
	</g>
	<line class="st5" x1="792.8" y1="1919" x2="792.8" y2="1933"/>
	<text transform="matrix(1 0 0 1 776 1953)" class="st2 st3">Margins</text>
	<text transform="matrix(1 0 0 1 776 1971)" class="st4 st3">Leading and trailing margins on the left and right side of each symbol</text>
	<text transform="matrix(1 0 0 1 776 1989)" class="st4 st3">can be adjusted by modifying the x-location of the margin guidelines.</text>
	<text transform="matrix(1 0 0 1 776 2007)" class="st4 st3">Modifications are automatically applied proportionally to all</text>
	<text transform="matrix(1 0 0 1 776 2025)" class="st4 st3">scales and weights.</text>
	<g transform="matrix(1 0 0 1 1289 1933)">
		<path d="M2.8,1.9l1.7,1.7c0.9,0.9,1.8,0.8,2.8-0.2L17.5-7.9c0.3,0.1,0.5,0.1,0.8,0L19.4-8l0.7,0.7l0,0.6c0,0.5,0.1,0.9,0.6,1.4
			l0.8,0.7c0.5,0.5,1.1,0.5,1.6,0l2.9-2.9c0.5-0.5,0.4-1.1,0-1.5L25-9.9c-0.5-0.5-0.8-0.6-1.3-0.6l-0.6,0l-0.6-0.6l0.2-1.1
			c0.1-0.6,0-1-0.6-1.6L19.9-16c-3.3-3.3-7.8-3.2-10.7-0.4c-0.4,0.4-0.4,1-0.2,1.4c0.2,0.4,0.7,0.6,1.3,0.4c1.5-0.3,3-0.4,4.4,0.5
			l-0.6,1.5c-0.2,0.5-0.2,0.9-0.1,1.2L3-0.9C2.1,0,2,1,2.8,1.9z M10.8-16c2.4-1.8,5.7-1.5,7.9,0.8l2.4,2.4c0.2,0.2,0.3,0.4,0.2,0.8
			L21-10.5l1.5,1.5l1-0.1c0.3,0,0.3,0,0.5,0.2l0.6,0.6l-2.4,2.4l-0.6-0.6c-0.2-0.2-0.2-0.3-0.2-0.5l0.1-1L20-9.5l-1.5,0.3
			c-0.3,0.1-0.5,0-0.7-0.2l-2-2c-0.3-0.2-0.3-0.4-0.1-0.8l0.9-2.1c-1.6-1.5-3.6-2.1-5.6-1.5C10.7-15.7,10.6-15.8,10.8-16z M5.3,2.3
			L4.1,1.1C3.6,0.7,3.7,0.3,4.1,0L15-10.2l1.5,1.5l-10,11C6.1,2.7,5.7,2.8,5.3,2.3z"/>
	</g>
	<text transform="matrix(1 0 0 1 1289 1953)" class="st2 st3">Exporting</text>
	<text transform="matrix(1 0 0 1 1289 1971)" class="st4 st3">Symbols should be outlined when exporting to ensure the</text>
	<text transform="matrix(1 0 0 1 1289 1989)" class="st4 st3">design is preserved when submitting to Xcode.</text>
	<text id="template-version" transform="matrix(1 0 0 1 2958.8496 1933)" class="st4 st3">Template v.2.0</text>
	<text transform="matrix(1 0 0 1 2878.5762 1951)" class="st4 st3">Requires Xcode 12 or greater</text>
	<text transform="matrix(1 0 0 1 2869.2539 1969)" class="st4 st3">Generated from phone.circle.fill</text>
	<text transform="matrix(1 0 0 1 2921.9238 1987)" class="st4 st3">Typeset at 100 points</text>
	<text transform="matrix(1 0 0 1 263 726)" class="st4 st3">Small</text>
	<text transform="matrix(1 0 0 1 263 1156)" class="st4 st3">Medium</text>
	<text transform="matrix(1 0 0 1 263 1586)" class="st4 st3">Large</text>
</g>
<g id="Guides">
	<g id="H-reference" transform="matrix(1 0 0 1 339 696)">
		<path class="st6" d="M1,0h2.7L13-24.5h32.8L55.1,0h2.6L30.6-70.5h-2.5L1,0z M29.3-67.1L29.3-67.1l15.5,40.4h-31L29.3-67.1z"/>
	</g>
	<line id="Baseline-S" class="st7" x1="263" y1="696" x2="3036" y2="696"/>
	<line id="Capline-S" class="st7" x1="263" y1="625.5" x2="3036" y2="625.5"/>
	<g id="H-reference_1_" transform="matrix(1 0 0 1 339 1126)">
		<path class="st6" d="M1,0h2.7L13-24.5h32.8L55.1,0h2.6L30.6-70.5h-2.5L1,0z M29.3-67.1L29.3-67.1l15.5,40.4h-31L29.3-67.1z"/>
	</g>
	<line id="Baseline-M" class="st7" x1="263" y1="1126" x2="3036" y2="1126"/>
	<line id="Capline-M" class="st7" x1="263" y1="1055.5" x2="3036" y2="1055.5"/>
	<g id="H-reference_2_" transform="matrix(1 0 0 1 339 1556)">
		<path class="st6" d="M1,0h2.7L13-24.5h32.8L55.1,0h2.6L30.6-70.5h-2.5L1,0z M29.3-67.1L29.3-67.1l15.5,40.4h-31L29.3-67.1z"/>
	</g>
	<line id="Baseline-L" class="st7" x1="263" y1="1556" x2="3036" y2="1556"/>
	<line id="Capline-L" class="st7" x1="263" y1="1485.5" x2="3036" y2="1485.5"/>
	<line id="left-margin" class="st5" x1="1391.3" y1="1030.8" x2="1391.3" y2="1150.1"/>
	<line id="right-margin" class="st5" x1="1508.4" y1="1030.8" x2="1508.4" y2="1150.1"/>
</g>
<g id="Symbols">
	<g id="Ultralight-S">
		<path id="Ultralight-S_1_" class="st8" d="M582.6,676.7h-5.4c-2.1,0-2.7-1.7-6.4-5.4c-3.2-3.1-4.6-3.5-5.4-3.5
			c-1.1,0-1.4,0.3-1.4,1.9v4.9c0,1.3-0.4,2.1-3.9,2.1c-5.7,0-12.1-3.5-16.6-9.9c-6.7-9.4-8.6-16.6-8.6-18c0-0.8,0.3-1.6,1.9-1.6h5.4
			c1.4,0,1.9,0.6,2.4,2.1c2.6,7.8,7.1,14.5,9,14.5c0.7,0,1-0.3,1-2.1v-8c-0.2-3.6-2.2-4-2.2-5.3c0-0.6,0.5-1.2,1.4-1.2h8.5
			c1.2,0,1.6,0.6,1.6,2V660c0,1.2,0.5,1.6,0.9,1.6c0.7,0,1.2-0.4,2.5-1.7c3.9-4.3,6.7-11.1,6.7-11.1c0.3-0.8,1-1.6,2.4-1.6h5.4
			c1.6,0,2,0.8,1.6,2c-0.7,3.2-7.3,12.5-7.3,12.5c-0.6,0.9-0.8,1.4,0,2.4c0.5,0.8,2.4,2.4,3.7,3.9c2.3,2.6,4.1,4.8,4.6,6.4
			C584.9,675.9,584.1,676.7,582.6,676.7z M571.2,623.5h-22.8c-20.9,0-25.8,5-25.8,25.8v22.8c0,20.9,4.9,25.8,25.8,25.8h22.8
			c20.9,0,25.8-4.9,25.8-25.8v-22.8C596.9,628.5,592,623.5,571.2,623.5z"/>
	</g>
	<g id="Thin-S">
		<path id="Thin-S_1_" class="st8" d="M879.7,676.9h-5.5c-2.1,0-2.7-1.7-6.5-5.4c-3.2-3.2-4.6-3.5-5.5-3.5c-1.1,0-1.5,0.3-1.5,1.9v5
			c0,1.3-0.4,2.1-3.9,2.1c-5.8,0-12.2-3.6-16.8-10.1c-6.8-9.6-8.7-16.8-8.7-18.3c0-0.8,0.3-1.6,1.9-1.6h5.5c1.4,0,2,0.6,2.5,2.1
			c2.8,7.8,7.2,14.7,9.1,14.7c0.7,0,1-0.3,1-2.1v-8.1c-0.2-3.7-2.2-4-2.2-5.4c0-0.6,0.6-1.3,1.4-1.3h8.7c1.2,0,1.6,0.6,1.6,2v11
			c0,1.2,0.5,1.6,0.9,1.6c0.7,0,1.3-0.4,2.6-1.7c4-4.4,6.8-11.3,6.8-11.3c0.4-0.8,1-1.6,2.4-1.6h5.5c1.7,0,2,0.8,1.7,2
			c-0.7,3.2-7.4,12.7-7.4,12.7c-0.6,0.9-0.8,1.4,0,2.4c0.6,0.8,2.5,2.5,3.8,4c2.3,2.7,4.2,4.9,4.6,6.5
			C882,676.1,881.2,676.9,879.7,676.9z M868,623h-23.2c-21.2,0-26.2,5-26.2,26.2v23.2c0,21.2,5,26.2,26.2,26.2H868
			c21.2,0,26.2-5,26.2-26.2v-23.2C894.2,628,889.2,623,868,623z"/>
	</g>
	<g id="Light-S">
		<path id="Light-S_1_" class="st8" d="M1176.7,677.2h-5.6c-2.1,0-2.7-1.8-6.6-5.5c-3.3-3.2-4.7-3.6-5.6-3.6c-1.2,0-1.5,0.3-1.5,1.9
			v5c0,1.4-0.4,2.2-4,2.2c-5.9,0-12.4-3.6-17.1-10.2c-6.9-9.8-8.8-17.1-8.8-18.6c0-0.8,0.3-1.6,1.9-1.6h5.6c1.4,0,2,0.6,2.5,2.1
			c2.9,8,7.4,15,9.2,15c0.7,0,1-0.3,1-2.1v-8.2c-0.2-3.8-2.2-4.1-2.2-5.4c0-0.6,0.6-1.3,1.4-1.3h8.8c1.2,0,1.6,0.6,1.6,2v11.1
			c0,1.2,0.5,1.6,0.9,1.6c0.7,0,1.3-0.4,2.6-1.7c4-4.5,6.9-11.4,6.9-11.4c0.4-0.8,1-1.6,2.4-1.6h5.6c1.7,0,2,0.8,1.7,2
			c-0.7,3.3-7.5,12.9-7.5,12.9c-0.6,0.9-0.8,1.4,0,2.5c0.6,0.8,2.5,2.5,3.8,4c2.4,2.7,4.2,5,4.7,6.6
			C1179.2,676.4,1178.3,677.2,1176.7,677.2z M1164.9,622.4h-23.6c-21.5,0-26.6,5.1-26.6,26.6v23.6c0,21.5,5.1,26.6,26.6,26.6h23.6
			c21.5,0,26.6-5.1,26.6-26.6V649C1191.5,627.5,1186.5,622.4,1164.9,622.4z"/>
	</g>
	<g id="Regular-S">
		<path id="Regular-S_1_" class="st8" d="M1473.8,677.4h-5.7c-2.2,0-2.8-1.8-6.7-5.6c-3.3-3.3-4.8-3.7-5.6-3.7
			c-1.2,0-1.5,0.3-1.5,1.9v5.1c0,1.4-0.4,2.2-4.1,2.2c-6,0-12.6-3.7-17.3-10.4c-7-9.9-9-17.3-9-18.8c0-0.9,0.3-1.6,1.9-1.6h5.7
			c1.5,0,2,0.6,2.6,2.2c2.9,8.1,7.5,15.2,9.4,15.2c0.7,0,1.1-0.3,1.1-2.2v-8.4c-0.2-3.8-2.3-4.1-2.3-5.5c0-0.6,0.6-1.3,1.5-1.3h8.9
			c1.2,0,1.6,0.6,1.6,2.1v11.3c0,1.2,0.5,1.6,0.9,1.6c0.7,0,1.3-0.4,2.6-1.7c4.1-4.5,7-11.6,7-11.6c0.4-0.9,1-1.6,2.5-1.6h5.7
			c1.7,0,2.1,0.9,1.7,2.1c-0.7,3.3-7.6,13.1-7.6,13.1c-0.6,0.9-0.9,1.4,0,2.5c0.6,0.9,2.5,2.5,3.9,4.1c2.4,2.8,4.3,5.1,4.8,6.7
			C1476.3,676.6,1475.4,677.4,1473.8,677.4z M1461.8,621.8h-23.9c-21.9,0-27,5.2-27,27v23.9c0,21.9,5.2,27,27,27h23.9
			c21.9,0,27-5.2,27-27v-23.9C1488.8,627,1483.7,621.8,1461.8,621.8z"/>
	</g>
	<g id="Medium-S">
		<path id="Medium-S_1_" class="st8" d="M1770.9,677.7h-5.8c-2.2,0-2.8-1.8-6.8-5.7c-3.4-3.3-4.9-3.7-5.7-3.7c-1.2,0-1.5,0.3-1.5,2
			v5.2c0,1.4-0.5,2.2-4.1,2.2c-6.1,0-12.8-3.7-17.6-10.6c-7.1-10.1-9.1-17.6-9.1-19.1c0-0.9,0.3-1.6,2-1.6h5.8c1.5,0,2,0.6,2.6,2.2
			c2.9,8.2,7.6,15.4,9.5,15.4c0.7,0,1.1-0.3,1.1-2.2v-8.5c-0.2-3.9-2.3-4.2-2.3-5.6c0-0.6,0.6-1.3,1.5-1.3h9.1
			c1.2,0,1.6,0.6,1.6,2.1v11.5c0,1.2,0.5,1.6,0.9,1.6c0.7,0,1.3-0.4,2.7-1.8c4.2-4.6,7.1-11.8,7.1-11.8c0.4-0.9,1-1.6,2.5-1.6h5.8
			c1.7,0,2.1,0.9,1.7,2.1c-0.7,3.4-7.8,13.3-7.8,13.3c-0.6,0.9-0.9,1.4,0,2.6c0.6,0.9,2.6,2.6,4,4.2c2.4,2.8,4.3,5.1,4.9,6.8
			C1773.4,676.8,1772.5,677.7,1770.9,677.7z M1758.7,621.2h-24.3c-22.2,0-27.5,5.3-27.5,27.4v24.3c0,22.2,5.2,27.5,27.4,27.5h24.3
			c22.2,0,27.5-5.2,27.5-27.4v-24.3C1786.1,626.5,1780.9,621.2,1758.7,621.2z"/>
	</g>
	<g id="Semibold-S">
		<path id="Semibold-S_1_" class="st8" d="M2067.9,677.9h-5.9c-2.2,0-2.9-1.8-6.9-5.8c-3.4-3.4-4.9-3.8-5.8-3.8
			c-1.2,0-1.5,0.3-1.5,2v5.3c0,1.4-0.5,2.3-4.2,2.3c-6.2,0-13-3.8-17.9-10.7c-7.2-10.2-9.2-17.9-9.2-19.4c0-0.9,0.3-1.7,2-1.7h5.9
			c1.5,0,2.1,0.7,2.6,2.2c3,8.3,7.7,15.6,9.7,15.6c0.8,0,1.1-0.3,1.1-2.2v-8.6c-0.3-3.9-2.3-4.3-2.3-5.7c0-0.6,0.6-1.3,1.5-1.3h9.2
			c1.3,0,1.7,0.6,1.7,2.1v11.6c0,1.3,0.5,1.7,0.9,1.7c0.8,0,1.3-0.4,2.7-1.8c4.2-4.7,7.2-12,7.2-12c0.4-0.9,1-1.7,2.6-1.7h5.9
			c1.8,0,2.1,0.9,1.8,2.1c-0.7,3.4-7.9,13.5-7.9,13.5c-0.6,1-0.9,1.5,0,2.6c0.6,0.9,2.6,2.6,4,4.2c2.5,2.9,4.4,5.2,4.9,6.9
			C2070.5,677.1,2069.6,677.9,2067.9,677.9z M2055.6,620.6H2031c-22.5,0-27.9,5.4-27.9,27.8v24.6c0,22.5,5.3,27.9,27.8,27.9h24.6
			c22.5,0,27.9-5.3,27.9-27.8v-24.6C2083.4,626,2078.1,620.6,2055.6,620.6z"/>
	</g>
	<g id="Bold-S">
		<path id="Bold-S_1_" class="st8" d="M2365,678.2h-5.9c-2.2,0-2.9-1.9-7-5.9c-3.5-3.4-5-3.8-5.9-3.8c-1.2,0-1.6,0.3-1.6,2v5.3
			c0,1.4-0.5,2.3-4.2,2.3c-6.3,0-13.2-3.8-18.1-10.9c-7.3-10.4-9.4-18.1-9.4-19.7c0-0.9,0.3-1.7,2-1.7h5.9c1.5,0,2.1,0.7,2.7,2.2
			c3,8.4,7.8,15.9,9.8,15.9c0.8,0,1.1-0.3,1.1-2.2V653c-0.3-4-2.4-4.3-2.4-5.8c0-0.6,0.6-1.4,1.5-1.4h9.3c1.3,0,1.7,0.6,1.7,2.2
			v11.8c0,1.3,0.6,1.7,0.9,1.7c0.8,0,1.4-0.4,2.8-1.8c4.3-4.8,7.3-12.1,7.3-12.1c0.4-0.9,1.1-1.7,2.6-1.7h5.9c1.8,0,2.2,0.9,1.8,2.2
			c-0.7,3.5-8,13.7-8,13.7c-0.6,1-0.9,1.5,0,2.6c0.6,0.9,2.7,2.6,4.1,4.3c2.5,2.9,4.5,5.3,5,7C2367.6,677.3,2366.7,678.2,2365,678.2
			z M2352.5,620h-25c-22.8,0-28.3,5.4-28.3,28.2v25c0,22.8,5.4,28.3,28.2,28.3h25c22.8,0,28.3-5.4,28.3-28.2v-25
			C2380.7,625.5,2375.3,620,2352.5,620z"/>
	</g>
	<g id="Heavy-S">
		<path id="Heavy-S_1_" class="st8" d="M2662.1,678.4h-6c-2.3,0-2.9-1.9-7.1-5.9c-3.5-3.5-5.1-3.9-6-3.9c-1.2,0-1.6,0.3-1.6,2.1v5.4
			c0,1.5-0.5,2.3-4.3,2.3c-6.4,0-13.3-3.9-18.4-11c-7.4-10.5-9.5-18.4-9.5-20c0-0.9,0.3-1.7,2.1-1.7h6c1.5,0,2.1,0.7,2.7,2.3
			c3.1,8.6,7.9,16.1,9.9,16.1c0.8,0,1.1-0.3,1.1-2.3v-8.9c-0.3-4-2.4-4.4-2.4-5.9c0-0.6,0.6-1.4,1.6-1.4h9.5c1.3,0,1.7,0.6,1.7,2.2
			v12c0,1.3,0.6,1.7,0.9,1.7c0.8,0,1.4-0.4,2.8-1.9c4.3-4.8,7.4-12.3,7.4-12.3c0.4-0.9,1.1-1.7,2.6-1.7h6c1.8,0,2.2,0.9,1.8,2.2
			c-0.7,3.5-8.1,13.9-8.1,13.9c-0.6,1-0.9,1.5,0,2.7c0.6,0.9,2.7,2.7,4.1,4.3c2.6,3,4.5,5.4,5.1,7.1
			C2664.7,677.6,2663.8,678.4,2662.1,678.4z M2649.4,619.4H2624c-23.2,0-28.7,5.5-28.7,28.6v25.4c0,23.2,5.5,28.7,28.6,28.7h25.4
			c23.2,0,28.7-5.5,28.7-28.6v-25.4C2678,624.9,2672.6,619.4,2649.4,619.4z"/>
	</g>
	<g id="Black-S">
		<path id="Black-S_1_" class="st8" d="M2959.2,678.7h-6.1c-2.3,0-3-1.9-7.2-6c-3.6-3.5-5.2-3.9-6.1-3.9c-1.3,0-1.6,0.3-1.6,2.1v5.5
			c0,1.5-0.5,2.4-4.4,2.4c-6.5,0-13.6-3.9-18.6-11.2c-7.6-10.6-9.6-18.6-9.6-20.3c0-0.9,0.3-1.7,2.1-1.7h6.1c1.6,0,2.1,0.7,2.8,2.3
			c3,8.7,8,16.3,10.1,16.3c0.8,0,1.1-0.3,1.1-2.3v-9c-0.3-4.1-2.4-4.5-2.4-5.9c0-0.7,0.6-1.4,1.6-1.4h9.6c1.3,0,1.7,0.7,1.7,2.2
			v12.1c0,1.3,0.6,1.7,1,1.7c0.8,0,1.4-0.4,2.8-1.9c4.4-4.9,7.5-12.5,7.5-12.5c0.4-0.9,1.1-1.7,2.7-1.7h6.1c1.8,0,2.2,0.9,1.8,2.2
			c-0.7,3.6-8.2,14.1-8.2,14.1c-0.7,1-0.9,1.5,0,2.7c0.6,0.9,2.8,2.7,4.2,4.4c2.6,3,4.6,5.5,5.2,7.2
			C2961.8,677.8,2960.9,678.7,2959.2,678.7z M2946.3,618.9h-25.7c-23.5,0-29.1,5.6-29.1,29v25.7c0,23.5,5.5,29.1,29,29.1h25.7
			c23.5,0,29.1-5.5,29.1-29v-25.7C2975.3,624.4,2969.8,618.9,2946.3,618.9z"/>
	</g>
	<g id="Ultralight-M">
		<path id="Ultralight-M_1_" class="st8" d="M588.8,1111h-6.9c-2.6,0-3.4-2.1-8.1-6.8c-4.1-3.9-5.8-4.4-6.9-4.4
			c-1.4,0-1.8,0.4-1.8,2.4v6.2c0,1.7-0.5,2.7-4.9,2.7c-7.3,0-15.3-4.4-21-12.6c-8.6-12-10.9-21-10.9-22.9c0-1,0.4-2,2.4-2h6.9
			c1.8,0,2.4,0.8,3.1,2.6c3.4,9.9,9.1,18.4,11.4,18.4c0.9,0,1.3-0.4,1.3-2.6v-10.2c-0.3-4.6-2.8-5-2.8-6.7c0-0.7,0.7-1.6,1.8-1.6
			h10.8c1.5,0,2,0.7,2,2.5v13.7c0,1.5,0.6,2,1.1,2c0.9,0,1.6-0.5,3.2-2.1c5-5.5,8.5-14.1,8.5-14.1c0.4-1,1.2-2,3-2h6.9
			c2.1,0,2.5,1,2.1,2.5c-0.8,4-9.3,15.9-9.3,15.9c-0.7,1.1-1,1.7,0,3.1c0.7,1,3.1,3.1,4.7,5c3,3.4,5.2,6.2,5.8,8.1
			C591.7,1110,590.8,1111,588.8,1111z M574.2,1043.5h-29c-26.5,0-32.8,6.3-32.8,32.8v29c0,26.5,6.3,32.8,32.8,32.8h29
			c26.5,0,32.8-6.3,32.8-32.8v-29C607,1049.8,600.8,1043.5,574.2,1043.5z"/>
	</g>
	<g id="Thin-M">
		<path id="Thin-M_1_" class="st8" d="M886,1111.4h-7c-2.7,0-3.4-2.2-8.2-6.9c-4.1-4-5.9-4.5-7-4.5c-1.5,0-1.9,0.4-1.9,2.4v6.3
			c0,1.7-0.6,2.7-5,2.7c-7.4,0-15.5-4.5-21.4-12.8c-8.7-12.2-11.1-21.4-11.1-23.3c0-1.1,0.4-2,2.4-2h7c1.8,0,2.5,0.8,3.2,2.7
			c3.6,10,9.2,18.7,11.6,18.7c0.9,0,1.3-0.4,1.3-2.7v-10.3c-0.3-4.7-2.8-5.1-2.8-6.8c0-0.8,0.7-1.6,1.8-1.6h11c1.5,0,2,0.8,2,2.6
			v13.9c0,1.5,0.7,2,1.1,2c0.9,0,1.6-0.5,3.3-2.2c5.1-5.6,8.6-14.3,8.6-14.3c0.5-1.1,1.3-2,3.1-2h7c2.1,0,2.6,1.1,2.1,2.6
			c-0.9,4.1-9.4,16.1-9.4,16.2c-0.8,1.2-1.1,1.8,0,3.1c0.7,1.1,3.1,3.1,4.8,5.1c3,3.4,5.3,6.3,5.9,8.2
			C889,1110.3,888,1111.4,886,1111.4z M871.2,1042.7h-29.5c-27,0-33.4,6.4-33.4,33.3v29.5c0,27,6.4,33.4,33.3,33.4h29.5
			c27,0,33.4-6.4,33.4-33.3v-29.5C904.5,1049.1,898.2,1042.7,871.2,1042.7z"/>
	</g>
	<g id="Light-M">
		<path id="Light-M_1_" class="st8" d="M1183.2,1111.7h-7.1c-2.7,0-3.5-2.2-8.4-7c-4.2-4.1-6-4.6-7.1-4.6c-1.5,0-1.9,0.4-1.9,2.4
			v6.4c0,1.7-0.6,2.8-5.1,2.8c-7.5,0-15.8-4.6-21.8-13c-8.8-12.4-11.3-21.8-11.3-23.6c0-1.1,0.4-2,2.4-2h7.1c1.8,0,2.5,0.8,3.2,2.7
			c3.6,10.1,9.4,19.1,11.8,19.1c0.9,0,1.3-0.4,1.3-2.7v-10.5c-0.3-4.8-2.9-5.2-2.9-6.9c0-0.8,0.7-1.6,1.8-1.6h11.2
			c1.5,0,2,0.8,2,2.6v14.2c0,1.5,0.7,2,1.1,2c0.9,0,1.6-0.5,3.3-2.2c5.1-5.7,8.8-14.6,8.8-14.6c0.5-1.1,1.3-2,3.1-2h7.1
			c2.1,0,2.6,1.1,2.1,2.6c-0.9,4.2-9.6,16.4-9.6,16.5c-0.8,1.2-1.1,1.8,0,3.2c0.7,1.1,3.2,3.2,4.9,5.1c3,3.5,5.4,6.4,6,8.4
			C1186.3,1110.7,1185.2,1111.7,1183.2,1111.7z M1168.2,1041.9h-30c-27.4,0-33.9,6.5-33.9,33.9v30c0,27.4,6.5,33.9,33.9,33.9h30
			c27.4,0,33.9-6.5,33.9-33.9v-30C1202,1048.4,1195.6,1041.9,1168.2,1041.9z"/>
	</g>
	<g id="Regular-M">
		<path id="Regular-M_1_" class="st8" d="M1480.4,1112.1h-7.2c-2.7,0-3.5-2.3-8.5-7.1c-4.3-4.2-6.1-4.7-7.2-4.7
			c-1.5,0-1.9,0.4-1.9,2.5v6.5c0,1.8-0.6,2.8-5.2,2.8c-7.7,0-16.1-4.7-22.1-13.3c-8.9-12.6-11.4-22.1-11.4-24c0-1.1,0.4-2.1,2.5-2.1
			h7.2c1.9,0,2.6,0.8,3.3,2.7c3.7,10.3,9.5,19.4,12,19.4c0.9,0,1.3-0.4,1.3-2.7v-10.7c-0.3-4.9-2.9-5.3-2.9-7c0-0.8,0.7-1.7,1.9-1.7
			h11.4c1.6,0,2.1,0.8,2.1,2.6v14.4c0,1.6,0.7,2.1,1.1,2.1c0.9,0,1.7-0.5,3.4-2.2c5.2-5.8,8.9-14.8,8.9-14.8
			c0.5-1.1,1.3-2.1,3.2-2.1h7.2c2.2,0,2.6,1.1,2.2,2.6c-0.9,4.2-9.7,16.7-9.7,16.7c-0.8,1.2-1.1,1.8,0,3.2c0.7,1.1,3.2,3.2,5,5.2
			c3.1,3.6,5.5,6.5,6.1,8.5C1483.5,1111,1482.5,1112.1,1480.4,1112.1z M1465.1,1041.1h-30.5c-27.9,0-34.5,6.6-34.5,34.4v30.5
			c0,27.9,6.6,34.5,34.4,34.5h30.5c27.9,0,34.5-6.6,34.5-34.4v-30.5C1499.5,1047.7,1493,1041.1,1465.1,1041.1z"/>
	</g>
	<g id="Medium-M">
		<path id="Medium-M_1_" class="st8" d="M1777.6,1112.4h-7.4c-2.8,0-3.6-2.3-8.6-7.3c-4.3-4.2-6.2-4.7-7.3-4.7
			c-1.5,0-1.9,0.4-1.9,2.5v6.6c0,1.8-0.6,2.8-5.3,2.8c-7.8,0-16.3-4.8-22.5-13.5c-9.1-12.8-11.6-22.5-11.6-24.4
			c0-1.1,0.4-2.1,2.5-2.1h7.4c1.9,0,2.6,0.8,3.3,2.8c3.8,10.5,9.7,19.7,12.2,19.7c0.9,0,1.4-0.4,1.4-2.8v-10.8
			c-0.3-4.9-2.9-5.4-2.9-7.2c0-0.8,0.7-1.7,1.9-1.7h11.6c1.6,0,2.1,0.8,2.1,2.7v14.6c0,1.6,0.7,2.1,1.2,2.1c0.9,0,1.7-0.5,3.4-2.3
			c5.3-5.9,9-15,9-15c0.5-1.1,1.3-2.1,3.2-2.1h7.4c2.2,0,2.7,1.1,2.2,2.7c-0.9,4.3-9.9,16.9-9.9,17c-0.8,1.2-1.1,1.8,0,3.3
			c0.7,1.1,3.3,3.3,5,5.3c3.1,3.6,5.5,6.6,6.2,8.6C1780.8,1111.3,1779.7,1112.4,1777.6,1112.4z M1762.1,1040.3h-31
			c-28.3,0-35,6.7-35,35v31c0,28.3,6.7,35,35,35h31c28.3,0,35-6.7,35-35v-31C1797.1,1047.1,1790.4,1040.3,1762.1,1040.3z"/>
	</g>
	<g id="Semibold-M">
		<path id="Semibold-M_1_" class="st8" d="M2074.8,1112.7h-7.5c-2.8,0-3.6-2.3-8.8-7.4c-4.4-4.3-6.3-4.8-7.4-4.8c-1.5,0-2,0.4-2,2.6
			v6.7c0,1.8-0.6,2.9-5.3,2.9c-7.9,0-16.6-4.8-22.8-13.7c-9.2-13-11.8-22.8-11.8-24.8c0-1.1,0.4-2.1,2.6-2.1h7.5
			c1.9,0,2.7,0.8,3.4,2.8c3.8,10.6,9.8,20,12.3,20c1,0,1.4-0.4,1.4-2.8v-11c-0.3-5-3-5.5-3-7.3c0-0.8,0.7-1.7,1.9-1.7h11.8
			c1.6,0,2.1,0.8,2.1,2.7v14.9c0,1.6,0.7,2.1,1.2,2.1c1,0,1.7-0.5,3.5-2.3c5.4-6,9.2-15.3,9.2-15.3c0.5-1.1,1.3-2.1,3.3-2.1h7.5
			c2.2,0,2.7,1.1,2.2,2.7c-0.9,4.4-10,17.2-10,17.3c-0.8,1.2-1.1,1.9,0,3.3c0.7,1.1,3.3,3.3,5.1,5.4c3.2,3.7,5.6,6.7,6.3,8.8
			C2078,1111.7,2076.9,1112.7,2074.8,1112.7z M2059,1039.5h-31.5c-28.7,0-35.6,6.8-35.6,35.5v31.5c0,28.7,6.8,35.6,35.5,35.6h31.5
			c28.7,0,35.6-6.8,35.6-35.5v-31.5C2094.6,1046.4,2087.8,1039.5,2059,1039.5z"/>
	</g>
	<g id="Bold-M">
		<path id="Bold-M_1_" class="st8" d="M2372,1113.1h-7.6c-2.9,0-3.7-2.4-8.9-7.5c-4.5-4.4-6.4-4.9-7.5-4.9c-1.6,0-2,0.4-2,2.6v6.8
			c0,1.8-0.6,2.9-5.4,2.9c-8,0-16.8-4.9-23.2-13.9c-9.4-13.2-12-23.2-12-25.2c0-1.1,0.4-2.2,2.6-2.2h7.6c2,0,2.7,0.9,3.4,2.9
			c3.9,10.8,10,20.3,12.5,20.3c1,0,1.4-0.4,1.4-2.9V1081c-0.3-5.1-3-5.5-3-7.4c0-0.8,0.8-1.7,2-1.7h11.9c1.6,0,2.2,0.8,2.2,2.8v15.1
			c0,1.6,0.7,2.2,1.2,2.2c1,0,1.7-0.5,3.5-2.3c5.5-6.1,9.3-15.5,9.3-15.5c0.5-1.1,1.4-2.2,3.3-2.2h7.6c2.3,0,2.8,1.1,2.3,2.8
			c-0.9,4.4-10.2,17.5-10.2,17.5c-0.8,1.2-1.1,1.9,0,3.4c0.8,1.1,3.4,3.4,5.2,5.5c3.2,3.7,5.7,6.8,6.4,8.9
			C2375.3,1112,2374.2,1113.1,2372,1113.1z M2356,1038.8h-32c-29.2,0-36.1,6.9-36.1,36.1v32c0,29.2,6.9,36.1,36.1,36.1h32
			c29.2,0,36.1-6.9,36.1-36.1v-32C2392.1,1045.7,2385.2,1038.8,2356,1038.8z"/>
	</g>
	<g id="Heavy-M">
		<path id="Heavy-M_1_" class="st8" d="M2669.2,1113.4h-7.7c-2.9,0-3.8-2.4-9-7.6c-4.5-4.4-6.5-5-7.7-5c-1.6,0-2,0.4-2,2.6v6.9
			c0,1.9-0.6,3-5.5,3c-8.2,0-17.1-5-23.5-14.1c-9.5-13.4-12.2-23.5-12.2-25.6c0-1.2,0.4-2.2,2.6-2.2h7.7c2,0,2.7,0.9,3.5,2.9
			c3.9,11,10.1,20.6,12.7,20.6c1,0,1.4-0.4,1.4-2.9v-11.3c-0.3-5.2-3.1-5.6-3.1-7.5c0-0.8,0.8-1.8,2-1.8h12.1c1.7,0,2.2,0.8,2.2,2.8
			v15.3c0,1.7,0.7,2.2,1.2,2.2c1,0,1.8-0.6,3.6-2.4c5.6-6.2,9.5-15.8,9.5-15.8c0.5-1.2,1.4-2.2,3.4-2.2h7.7c2.3,0,2.8,1.2,2.3,2.8
			c-0.9,4.5-10.4,17.7-10.4,17.8c-0.8,1.3-1.2,1.9,0,3.4c0.8,1.2,3.4,3.4,5.3,5.6c3.3,3.8,5.8,6.9,6.5,9
			C2672.5,1112.3,2671.4,1113.4,2669.2,1113.4z M2652.9,1038h-32.5c-29.6,0-36.7,7.1-36.7,36.6v32.5c0,29.6,7,36.7,36.6,36.7h32.5
			c29.6,0,36.7-7,36.7-36.6v-32.5C2689.6,1045,2682.6,1038,2652.9,1038z"/>
	</g>
	<g id="Black-M">
		<path id="Black-M_1_" class="st8" d="M2966.4,1113.8h-7.8c-3,0-3.9-2.4-9.2-7.7c-4.6-4.5-6.6-5-7.8-5c-1.6,0-2.1,0.4-2.1,2.7v7
			c0,1.9-0.6,3-5.6,3c-8.3,0-17.4-5-23.9-14.3c-9.7-13.6-12.4-23.9-12.4-25.9c0-1.2,0.4-2.2,2.7-2.2h7.8c2,0,2.7,0.9,3.5,3
			c3.8,11.2,10.3,20.9,12.9,20.9c1,0,1.5-0.4,1.5-3v-11.5c-0.3-5.3-3.1-5.7-3.1-7.6c0-0.8,0.8-1.8,2-1.8h12.3c1.7,0,2.2,0.8,2.2,2.9
			v15.5c0,1.7,0.7,2.2,1.2,2.2c1,0,1.8-0.6,3.6-2.4c5.6-6.3,9.6-16,9.6-16c0.5-1.2,1.4-2.2,3.4-2.2h7.8c2.3,0,2.9,1.2,2.3,2.9
			c-1,4.6-10.5,18-10.5,18.1c-0.8,1.3-1.2,2,0,3.5c0.8,1.2,3.5,3.5,5.4,5.6c3.4,3.8,5.9,7,6.6,9.2
			C2969.7,1112.7,2968.6,1113.8,2966.4,1113.8z M2949.9,1037.2H2917c-30.1,0-37.2,7.2-37.2,37.2v32.9c0,30.1,7.1,37.2,37.2,37.2
			h32.9c30.1,0,37.2-7.1,37.2-37.2v-32.9C2987.1,1044.3,2980,1037.2,2949.9,1037.2z"/>
	</g>
	<g id="Ultralight-L">
		<path id="Ultralight-L_1_" class="st8" d="M597.1,1546.8h-8.9c-3.4,0-4.4-2.7-10.4-8.7c-5.3-5.1-7.5-5.7-8.8-5.7
			c-1.8,0-2.3,0.5-2.3,3v8c0,2.2-0.7,3.4-6.3,3.4c-9.4,0-19.7-5.7-27.1-16.2c-11-15.4-14-27-14-29.4c0-1.3,0.5-2.5,3-2.5h8.9
			c2.3,0,3.1,1,4,3.4c4.3,12.7,11.7,23.7,14.6,23.7c1.1,0,1.6-0.5,1.6-3.4v-13c-0.4-6-3.5-6.5-3.5-8.6c0-1,0.9-2,2.3-2h13.9
			c1.9,0,2.5,1,2.5,3.2v17.6c0,1.9,0.8,2.5,1.4,2.5c1.1,0,2-0.6,4.1-2.7c6.4-7.1,10.9-18.1,10.9-18.1c0.6-1.3,1.6-2.5,3.9-2.5h8.9
			c2.7,0,3.2,1.3,2.7,3.2c-1.1,5.2-11.9,20.4-11.9,20.5c-1,1.5-1.3,2.2,0,3.9c0.9,1.3,4,3.9,6.1,6.4c3.8,4.3,6.7,7.9,7.5,10.4
			C600.9,1545.5,599.6,1546.8,597.1,1546.8z M578.4,1460h-37.3c-34.1,0-42.2,8.1-42.2,42.1v37.3c0,34.1,8,42.2,42.1,42.2h37.3
			c34.1,0,42.2-8,42.2-42.1v-37.3C620.5,1468.1,612.5,1460,578.4,1460z"/>
	</g>
	<g id="Thin-L">
		<path id="Thin-L_1_" class="st8" d="M894.3,1547.2h-9c-3.4,0-4.4-2.8-10.5-8.9c-5.3-5.2-7.6-5.8-8.9-5.8c-1.9,0-2.4,0.5-2.4,3.1
			v8.1c0,2.2-0.7,3.5-6.4,3.5c-9.5,0-19.9-5.8-27.5-16.5c-11.1-15.7-14.2-27.5-14.2-29.8c0-1.4,0.5-2.6,3.1-2.6h9
			c2.3,0,3.2,1,4.1,3.4c4.6,12.8,11.8,24,14.9,24c1.2,0,1.7-0.5,1.7-3.4v-13.2c-0.4-6-3.6-6.6-3.6-8.7c0-1,0.9-2.1,2.3-2.1h14.1
			c1.9,0,2.6,1,2.6,3.3v17.9c0,1.9,0.8,2.6,1.4,2.6c1.2,0,2.1-0.6,4.2-2.8c6.5-7.2,11.1-18.4,11.1-18.4c0.6-1.4,1.6-2.6,3.9-2.6h9
			c2.7,0,3.3,1.4,2.7,3.3c-1.1,5.3-12.1,20.7-12.1,20.8c-1,1.5-1.4,2.3,0,4c0.9,1.4,4,4,6.2,6.5c3.8,4.4,6.8,8,7.6,10.5
			C898.2,1545.9,896.9,1547.2,894.3,1547.2z M875.4,1459.1h-37.9c-34.6,0-42.8,8.2-42.8,42.8v37.9c0,34.6,8.2,42.8,42.8,42.8h37.9
			c34.6,0,42.8-8.2,42.8-42.8v-37.9C918.1,1467.3,910,1459.1,875.4,1459.1z"/>
	</g>
	<g id="Light-L">
		<path id="Light-L_1_" class="st8" d="M1191.6,1547.6h-9.1c-3.5,0-4.4-2.9-10.7-9c-5.4-5.3-7.7-5.9-9.1-5.9c-1.9,0-2.4,0.5-2.4,3.1
			v8.2c0,2.2-0.7,3.5-6.5,3.5c-9.7,0-20.2-5.9-27.9-16.7c-11.3-15.9-14.4-27.9-14.4-30.3c0-1.4,0.5-2.6,3.1-2.6h9.1
			c2.3,0,3.2,1,4.1,3.5c4.7,13,12,24.4,15.1,24.4c1.2,0,1.7-0.5,1.7-3.5V1509c-0.4-6.1-3.7-6.7-3.7-8.9c0-1,0.9-2.1,2.3-2.1h14.4
			c2,0,2.6,1,2.6,3.3v18.1c0,2,0.8,2.6,1.4,2.6c1.2,0,2.1-0.7,4.2-2.8c6.6-7.3,11.2-18.7,11.2-18.7c0.6-1.4,1.6-2.6,4-2.6h9.1
			c2.7,0,3.3,1.4,2.7,3.3c-1.1,5.3-12.3,21-12.3,21.1c-1,1.5-1.4,2.3,0,4c0.9,1.4,4.1,4.1,6.3,6.6c3.9,4.5,6.9,8.1,7.7,10.7
			C1195.6,1546.3,1194.2,1547.6,1191.6,1547.6z M1172.4,1458.2h-38.4c-35.1,0-43.4,8.3-43.4,43.4v38.4c0,35.1,8.3,43.4,43.4,43.4
			h38.4c35.1,0,43.4-8.3,43.4-43.4v-38.4C1215.7,1466.6,1207.5,1458.2,1172.4,1458.2z"/>
	</g>
	<g id="Regular-L">
		<path id="Regular-L_1_" class="st8" d="M1488.9,1548h-9.3c-3.5,0-4.5-2.9-10.9-9.1c-5.4-5.3-7.8-6-9.2-6c-1.9,0-2.4,0.5-2.4,3.2
			v8.3c0,2.2-0.7,3.6-6.6,3.6c-9.8,0-20.5-6-28.3-16.9c-11.4-16.1-14.6-28.3-14.6-30.7c0-1.4,0.5-2.6,3.2-2.6h9.3
			c2.4,0,3.3,1,4.2,3.5c4.7,13.2,12.2,24.7,15.3,24.7c1.2,0,1.7-0.5,1.7-3.5v-13.6c-0.4-6.2-3.7-6.7-3.7-9c0-1,0.9-2.1,2.4-2.1h14.6
			c2,0,2.6,1,2.6,3.4v18.4c0,2,0.9,2.6,1.5,2.6c1.2,0,2.1-0.7,4.3-2.8c6.7-7.4,11.4-18.9,11.4-18.9c0.6-1.4,1.7-2.6,4-2.6h9.3
			c2.8,0,3.4,1.4,2.8,3.4c-1.1,5.4-12.4,21.3-12.4,21.4c-1,1.5-1.4,2.3,0,4.1c0.9,1.4,4.1,4.1,6.4,6.7c3.9,4.5,7,8.3,7.8,10.9
			C1492.9,1546.6,1491.5,1548,1488.9,1548z M1469.4,1457.3h-39c-35.6,0-44.1,8.5-44.1,44v39c0,35.6,8.4,44.1,44,44.1h39
			c35.6,0,44.1-8.4,44.1-44v-39C1513.4,1465.8,1505,1457.3,1469.4,1457.3z"/>
	</g>
	<g id="Medium-L">
		<path id="Medium-L_1_" class="st8" d="M1786.1,1548.4h-9.4c-3.6,0-4.6-2.9-11-9.3c-5.5-5.4-7.9-6-9.3-6c-1.9,0-2.5,0.5-2.5,3.2
			v8.5c0,2.3-0.7,3.6-6.7,3.6c-9.9,0-20.8-6.1-28.7-17.2c-11.6-16.4-14.8-28.7-14.8-31.1c0-1.4,0.5-2.7,3.2-2.7h9.4
			c2.4,0,3.3,1.1,4.2,3.6c4.8,13.3,12.3,25.1,15.5,25.1c1.2,0,1.7-0.5,1.7-3.6v-13.8c-0.4-6.3-3.8-6.8-3.8-9.1c0-1,0.9-2.1,2.4-2.1
			h14.8c2,0,2.7,1,2.7,3.4v18.7c0,2,0.9,2.7,1.5,2.7c1.2,0,2.1-0.7,4.4-2.9c6.8-7.5,11.5-19.2,11.5-19.2c0.6-1.4,1.7-2.7,4.1-2.7
			h9.4c2.8,0,3.4,1.4,2.8,3.4c-1.1,5.5-12.6,21.6-12.6,21.7c-1,1.5-1.4,2.3,0,4.2c0.9,1.4,4.2,4.2,6.4,6.8c4,4.6,7.1,8.4,7.9,11
			C1790.2,1547,1788.8,1548.4,1786.1,1548.4z M1766.3,1456.4h-39.5c-36.1,0-44.7,8.6-44.7,44.6v39.5c0,36.1,8.5,44.7,44.6,44.7h39.5
			c36.1,0,44.7-8.5,44.7-44.6v-39.5C1811,1465,1802.4,1456.4,1766.3,1456.4z"/>
	</g>
	<g id="Semibold-L">
		<path id="Semibold-L_1_" class="st8" d="M2083.4,1548.8h-9.5c-3.6,0-4.6-3-11.2-9.4c-5.6-5.5-8-6.1-9.5-6.1c-2,0-2.5,0.5-2.5,3.3
			v8.6c0,2.3-0.7,3.7-6.8,3.7c-10.1,0-21.1-6.2-29.1-17.4c-11.7-16.6-15-29.1-15-31.6c0-1.4,0.5-2.7,3.3-2.7h9.5
			c2.4,0,3.4,1.1,4.3,3.6c4.9,13.5,12.5,25.5,15.7,25.5c1.2,0,1.8-0.5,1.8-3.6v-14c-0.4-6.4-3.8-6.9-3.8-9.3c0-1,1-2.2,2.5-2.2h15
			c2,0,2.7,1,2.7,3.5v18.9c0,2,0.9,2.7,1.5,2.7c1.2,0,2.2-0.7,4.4-2.9c6.9-7.6,11.7-19.5,11.7-19.5c0.6-1.4,1.7-2.7,4.2-2.7h9.5
			c2.9,0,3.5,1.4,2.9,3.5c-1.2,5.6-12.8,21.9-12.8,22c-1,1.6-1.4,2.4,0,4.2c1,1.4,4.3,4.2,6.5,6.9c4,4.7,7.2,8.5,8,11.2
			C2087.5,1547.4,2086.1,1548.8,2083.4,1548.8z M2063.3,1455.5h-40.1c-36.6,0-45.3,8.7-45.3,45.3v40.1c0,36.6,8.6,45.3,45.3,45.3
			h40.1c36.6,0,45.3-8.6,45.3-45.3v-40.1C2108.6,1464.2,2099.9,1455.5,2063.3,1455.5z"/>
	</g>
	<g id="Bold-L">
		<path id="Bold-L_1_" class="st8" d="M2380.7,1549.1h-9.7c-3.7,0-4.7-3-11.3-9.5c-5.7-5.6-8.1-6.2-9.6-6.2c-2,0-2.6,0.6-2.6,3.3
			v8.7c0,2.3-0.8,3.7-6.9,3.7c-10.2,0-21.4-6.3-29.5-17.7c-11.9-16.8-15.2-29.5-15.2-32c0-1.4,0.6-2.8,3.3-2.8h9.7
			c2.5,0,3.4,1.1,4.3,3.7c4.9,13.7,12.7,25.8,15.9,25.8c1.2,0,1.8-0.6,1.8-3.7v-14.2c-0.4-6.5-3.9-7-3.9-9.4c0-1,1-2.2,2.5-2.2h15.2
			c2.1,0,2.8,1,2.8,3.5v19.2c0,2.1,0.9,2.8,1.5,2.8c1.2,0,2.2-0.7,4.5-3c7-7.7,11.9-19.7,11.9-19.7c0.6-1.4,1.7-2.8,4.2-2.8h9.7
			c2.9,0,3.5,1.4,2.9,3.5c-1.2,5.7-13,22.2-13,22.3c-1,1.6-1.4,2.4,0,4.3c1,1.4,4.3,4.3,6.6,7c4.1,4.7,7.3,8.6,8.1,11.3
			C2384.8,1547.8,2383.4,1549.1,2380.7,1549.1z M2360.3,1454.6h-40.6c-37.1,0-46,8.8-46,45.9v40.6c0,37.1,8.8,46,45.9,46h40.6
			c37.1,0,46-8.8,46-45.9v-40.6C2406.2,1463.5,2397.4,1454.6,2360.3,1454.6z"/>
	</g>
	<g id="Heavy-L">
		<path id="Heavy-L_1_" class="st8" d="M2677.9,1549.5h-9.8c-3.7,0-4.8-3.1-11.5-9.7c-5.8-5.6-8.3-6.3-9.7-6.3c-2,0-2.6,0.6-2.6,3.4
			v8.8c0,2.4-0.8,3.8-7,3.8c-10.4,0-21.7-6.3-29.9-17.9c-12.1-17.1-15.5-29.9-15.5-32.4c0-1.5,0.6-2.8,3.4-2.8h9.8
			c2.5,0,3.5,1.1,4.4,3.7c5,13.9,12.9,26.2,16.2,26.2c1.3,0,1.8-0.6,1.8-3.7v-14.4c-0.4-6.6-3.9-7.1-3.9-9.5c0-1,1-2.2,2.5-2.2h15.4
			c2.1,0,2.8,1,2.8,3.6v19.4c0,2.1,0.9,2.8,1.5,2.8c1.3,0,2.2-0.7,4.5-3c7.1-7.8,12-20,12-20c0.6-1.5,1.7-2.8,4.3-2.8h9.8
			c2.9,0,3.6,1.5,2.9,3.6c-1.2,5.7-13.1,22.5-13.1,22.6c-1,1.6-1.5,2.4,0,4.3c1,1.5,4.4,4.4,6.7,7.1c4.1,4.8,7.4,8.7,8.3,11.5
			C2682.2,1548.1,2680.7,1549.5,2677.9,1549.5z M2657.3,1453.7h-41.2c-37.6,0-46.6,9-46.6,46.5v41.2c0,37.6,8.9,46.6,46.5,46.6h41.2
			c37.6,0,46.6-8.9,46.6-46.5v-41.2C2703.8,1462.7,2694.9,1453.7,2657.3,1453.7z"/>
	</g>
	<g id="Black-L">
		<path id="Black-L_1_" class="st8" d="M2975.2,1549.9h-9.9c-3.8,0-4.9-3-11.6-9.8c-5.9-5.7-8.4-6.4-9.9-6.4c-2.1,0-2.6,0.6-2.6,3.4
			v8.9c0,2.4-0.8,3.8-7.1,3.8c-10.5,0-22-6.4-30.3-18.1c-12.3-17.2-15.7-30.3-15.7-32.9c0-1.5,0.6-2.8,3.4-2.8h9.9
			c2.6,0,3.5,1.1,4.5,3.8c4.8,14.2,13,26.5,16.4,26.5c1.3,0,1.8-0.6,1.8-3.8V1508c-0.4-6.7-4-7.2-4-9.6c0-1.1,1-2.3,2.6-2.3h15.6
			c2.1,0,2.8,1.1,2.8,3.6v19.7c0,2.1,0.9,2.8,1.6,2.8c1.3,0,2.3-0.7,4.6-3c7.2-7.9,12.2-20.3,12.2-20.3c0.6-1.5,1.8-2.8,4.3-2.8h9.9
			c3,0,3.6,1.5,3,3.6c-1.2,5.8-13.3,22.8-13.3,22.9c-1.1,1.6-1.5,2.5,0,4.4c1,1.5,4.5,4.4,6.8,7.2c4.3,4.8,7.4,8.9,8.4,11.6
			C2979.4,1548.5,2978,1549.9,2975.2,1549.9z M2954.3,1452.8h-41.7c-38.1,0-47.2,9.1-47.2,47.1v41.7c0,38.1,9,47.2,47.1,47.2h41.7
			c38.1,0,47.2-9,47.2-47.1V1500C3001.4,1461.9,2992.4,1452.8,2954.3,1452.8z"/>
	</g>
</g>
</svg>
